<svg version="1.1" id="Layer_1" xmlns="http://www.w3.org/2000/svg" xmlns:xlink="http://www.w3.org/1999/xlink"
     width="100%" viewBox="0 250 800 300" xml:space="preserve">

<path fill="#96C4D3" opacity="1.000000" stroke="none" 
	d="
M122.541504,496.571167 
	C120.825310,497.645844 119.449501,498.584961 118.002281,499.396759 
	C111.635567,502.968079 110.823799,502.911987 103.757942,498.491913 
	C104.391495,497.754517 104.858780,496.818420 105.614189,496.388092 
	C132.629044,480.998108 150.835678,457.493713 165.001053,430.661591 
	C175.628616,410.530823 182.078934,388.966614 184.221283,366.106262 
	C185.611023,351.276550 184.470886,336.993683 179.269806,322.995331 
	C169.968292,297.960999 149.754761,287.351807 123.601761,291.934570 
	C112.182022,293.935577 107.438095,302.394440 101.536919,309.516754 
	C76.958572,339.181030 60.482342,373.062225 51.603077,410.582642 
	C50.686672,414.455048 50.104462,418.405548 49.318508,422.310028 
	C47.947094,429.122925 47.172707,429.613464 39.273930,428.379700 
	C39.273930,427.056244 39.065338,425.599823 39.304264,424.220917 
	C46.269085,384.024933 62.327625,347.876343 88.921349,316.901978 
	C97.838814,306.515564 108.597183,297.643433 119.003029,288.644501 
	C121.854576,286.178467 126.443748,285.658936 130.291061,284.418365 
	C143.968185,280.008057 157.661514,278.724792 171.121857,285.099609 
	C183.103577,290.774200 190.246689,300.809814 194.962311,312.761108 
	C200.567810,326.967743 201.408707,341.647797 200.264328,356.839203 
	C198.541412,379.710419 192.903519,401.413483 183.019104,421.957306 
	C168.834229,451.439178 150.027466,477.330139 122.541504,496.571167 
z"/>
<path fill="#96C4D3" opacity="1.000000" stroke="none" 
	d="
M169.138062,483.118958 
	C159.253479,491.242279 149.530365,499.006226 140.020523,507.023132 
	C134.735703,511.478363 130.017456,509.700989 124.465218,506.253479 
	C129.029678,502.747986 133.310379,499.498596 137.551056,496.197723 
	C180.947128,462.419037 204.278671,416.781830 214.675003,363.909393 
	C218.655472,343.666077 217.798279,323.282196 210.805679,303.459351 
	C201.743408,277.769318 177.578262,265.153046 151.328049,272.801910 
	C145.477844,274.506561 139.793991,276.782104 134.033554,278.794800 
	C133.791138,278.359314 133.548721,277.923859 133.306305,277.488403 
	C139.990067,274.032043 146.416443,269.899200 153.403763,267.240753 
	C178.664246,257.629974 201.094299,264.596832 221.469177,280.409943 
	C224.401184,282.685486 226.334930,286.752228 227.767517,290.371307 
	C235.897842,310.910736 236.285782,332.099548 232.793106,353.650146 
	C228.665771,379.116699 221.189743,403.460114 209.171570,426.316956 
	C198.362854,446.873535 184.957382,465.639282 169.138062,483.118958 
z"/>
<path fill="#96C4D3" opacity="1.000000" stroke="none" 
	d="
M214.149628,466.143921 
	C200.079971,484.903809 184.111847,501.128052 165.241669,514.657410 
	C158.197586,519.707825 152.693863,518.714355 146.670547,514.773254 
	C212.186890,467.100006 245.247269,401.501312 253.585495,321.069153 
	C258.839081,333.373657 267.131256,343.971588 265.770721,357.165894 
	C264.882385,365.781189 261.693207,374.260071 258.815582,382.550446 
	C250.433456,406.699158 239.216553,429.497498 224.981079,450.762573 
	C221.559769,455.873383 217.911697,460.832367 214.149628,466.143921 
z"/>
<path fill="#96C4D3" opacity="1.000000" stroke="none" 
	d="
M144.811157,326.274139 
	C135.930466,313.349762 123.148926,308.794006 108.272163,307.929840 
	C109.255417,303.183228 111.886459,300.629578 116.240875,299.970215 
	C133.449905,297.364441 147.613922,303.108459 157.800186,316.937317 
	C169.629837,332.997192 172.121155,351.664551 170.381470,371.066101 
	C168.441772,392.698273 162.503418,413.303741 152.005478,432.230774 
	C145.589127,443.798950 137.330566,454.346405 129.865021,465.328888 
	C129.435669,465.960449 128.695877,466.380981 127.139473,467.737274 
	C127.698395,465.573822 127.902512,464.581909 128.210709,463.623444 
	C130.240036,457.312683 131.980240,450.885986 134.411880,444.733093 
	C137.751495,436.282684 141.863205,428.137817 145.216675,419.692322 
	C154.904602,395.293915 159.924179,370.272491 152.928772,344.242035 
	C151.273880,338.084167 147.720612,332.436493 144.811157,326.274139 
z"/>
<path fill="#96C4D3" opacity="1.000000" stroke="none" 
	d="
M197.145905,519.157593 
	C194.979996,520.731750 192.807587,521.823853 191.265060,523.496704 
	C184.774185,530.535828 178.246445,527.784668 170.648834,523.538818 
	C219.770340,489.774811 250.215958,442.220612 273.114929,388.937347 
	C273.536713,389.053772 273.958496,389.170197 274.380249,389.286621 
	C274.884033,393.770386 275.582092,398.243011 275.839600,402.740875 
	C276.124664,407.720154 276.141876,412.726440 275.995819,417.712769 
	C275.939728,419.628418 275.497803,421.735840 274.577972,423.393036 
	C257.221344,454.664001 236.800247,483.634552 210.349136,507.998138 
	C206.201263,511.818695 201.743561,515.302856 197.145905,519.157593 
z"/>
<path fill="#0F1A15" opacity="1.000000" stroke="none" 
	d="
M734.791138,432.193115 
	C725.961060,415.883636 733.691101,396.234863 748.972900,389.204773 
	C761.174866,383.591431 772.467224,386.031677 782.953491,397.379547 
	C782.953491,394.126740 782.953491,391.306183 782.953491,388.212585 
	C785.974304,388.212585 788.538574,388.212585 791.348999,388.212585 
	C791.348999,407.805481 791.348999,427.211212 791.348999,446.928314 
	C788.748718,446.928314 786.162170,446.928314 783.449890,446.928314 
	C783.189758,444.439484 782.938538,442.035461 782.523254,438.061493 
	C774.319275,448.277710 764.677856,450.702850 753.520447,447.435150 
	C745.286743,445.023712 739.253967,439.850708 734.791138,432.193115 
M753.296814,396.313446 
	C744.955261,400.589081 739.971130,407.236420 739.651367,416.738831 
	C739.324768,426.443970 743.741272,433.818756 752.304932,438.187500 
	C759.568909,441.893250 767.122803,441.941528 773.967529,436.886871 
	C782.659241,430.468323 785.238403,416.255493 779.886963,405.611786 
	C774.985352,395.862823 766.045288,392.551575 753.296814,396.313446 
z"/>
<path fill="#0B1611" opacity="1.000000" stroke="none" 
	d="
M502.245148,440.735107 
	C502.238525,443.010223 502.238525,444.823151 502.238525,446.977539 
	C500.742310,447.069244 499.471100,447.212952 498.200592,447.206757 
	C496.898285,447.200439 495.596680,447.047424 494.195099,446.951813 
	C494.011200,443.963654 493.841919,441.213470 493.589203,437.107178 
	C487.585754,445.665558 480.267853,449.486023 470.991516,448.719116 
	C462.135590,447.986938 454.739899,444.212372 448.976349,437.354340 
	C438.202179,424.534149 439.850067,404.738586 452.587219,393.756012 
	C462.181671,385.483215 481.311401,381.230743 493.760101,397.759094 
	C493.760101,394.310242 493.760101,391.490662 493.760101,388.311829 
	C496.810852,388.311829 499.363373,388.311829 502.251770,388.311829 
	C502.251770,405.657196 502.251770,422.965088 502.245148,440.735107 
M488.940063,402.727051 
	C485.121613,397.288635 479.864075,394.657623 473.244995,394.634857 
	C457.198425,394.579681 445.972992,410.429932 451.673553,425.570679 
	C455.061584,434.569336 461.920258,439.819702 471.608185,440.556702 
	C479.552612,441.161102 486.106384,438.030640 489.906799,430.913452 
	C494.455811,421.768707 494.789886,412.420807 488.940063,402.727051 
z"/>
<path fill="#0D1813" opacity="1.000000" stroke="none" 
	d="
M372.156311,389.117432 
	C393.600830,379.911072 414.619965,395.870880 413.516968,420.727753 
	C397.016571,420.727753 380.472504,420.727753 363.899872,420.727753 
	C364.472382,429.490753 369.822235,436.520386 377.559265,439.217834 
	C385.464142,441.973785 394.316132,440.150696 399.138062,433.284882 
	C402.757629,428.131195 406.173615,429.480530 410.839691,431.237671 
	C405.452759,441.774841 397.390533,448.039093 385.802979,448.689026 
	C373.923157,449.355286 364.841095,443.945587 358.943054,433.765442 
	C349.594208,417.629120 355.296143,398.374176 372.156311,389.117432 
M386.167053,394.084991 
	C373.442749,393.998291 364.157288,402.100220 363.709869,413.773499 
	C377.419769,413.773499 391.123749,413.773499 404.858185,413.773499 
	C403.729523,403.150024 397.806335,396.738708 386.167053,394.084991 
z"/>
<path fill="#0D1813" opacity="1.000000" stroke="none" 
	d="
M636.811157,421.046204 
	C637.455627,430.045837 642.000000,436.417633 650.535522,439.192810 
	C658.646362,441.829926 666.473816,440.448181 671.674133,433.403351 
	C675.232849,428.582489 678.525940,428.874817 682.858643,431.167816 
	C680.149536,441.284149 665.287476,452.379028 648.711365,447.691284 
	C633.672852,443.438354 624.151978,426.151611 628.065918,409.839966 
	C631.974915,393.548981 647.510376,383.659485 663.762024,387.116608 
	C677.684692,390.078278 688.280090,406.299133 685.633179,420.924072 
	C669.527405,420.924072 653.374878,420.924072 636.811157,421.046204 
M667.456177,414.091339 
	C670.861816,414.091339 674.267456,414.091339 677.751160,414.091339 
	C675.583069,401.259918 666.884583,393.538330 655.753235,394.031830 
	C645.516846,394.485687 637.011780,403.012115 636.169067,414.091339 
	C646.287292,414.091339 656.377441,414.091339 667.456177,414.091339 
z"/>
<path fill="#0D1813" opacity="1.000000" stroke="none" 
	d="
M531.015259,473.258026 
	C529.278015,479.495880 524.654236,475.849915 520.737915,477.163849 
	C523.794006,468.736786 526.387329,460.908539 529.494141,453.289703 
	C531.178223,449.159912 531.144409,445.523926 529.590210,441.367432 
	C523.546326,425.204041 517.785034,408.934937 511.942841,392.696442 
	C511.449036,391.323853 511.135193,389.886597 510.729584,388.450500 
	C519.069336,387.255707 519.158325,387.224609 521.637207,394.320801 
	C525.854370,406.393066 529.941101,418.510925 534.102478,430.602753 
	C534.467102,431.662201 534.979065,432.670929 535.707764,434.367035 
	C536.575745,432.744904 537.291016,431.714752 537.711243,430.575714 
	C542.077942,418.739960 546.449463,406.905487 550.710571,395.031525 
	C553.410156,387.508789 553.327576,387.479156 561.956726,388.306793 
	C551.652222,416.570618 541.388550,444.722290 531.015259,473.258026 
z"/>
<path fill="#96C4D3" opacity="1.000000" stroke="none" 
	d="
M272.888062,459.143402 
	C270.865234,467.418732 269.214355,475.407410 266.784454,483.151642 
	C265.423218,487.489990 263.526886,492.093750 260.571594,495.424316 
	C247.214813,510.477386 232.925247,524.578674 216.507355,536.421875 
	C212.988480,538.960266 210.090714,539.241028 206.455978,537.578308 
	C203.785614,536.356750 201.016129,535.351929 197.177414,533.800537 
	C227.966629,512.621399 251.449799,485.549377 272.527435,454.779846 
	C272.730255,456.761414 272.832275,457.757965 272.888062,459.143402 
z"/>
<path fill="#97C5D3" opacity="1.000000" stroke="none" 
	d="
M97.791153,325.764557 
	C99.322662,323.065918 100.604530,320.169525 102.508293,317.765717 
	C103.271988,316.801422 105.530724,316.336334 106.892082,316.634491 
	C123.518822,320.275574 133.693146,330.920044 139.076859,346.686951 
	C145.969742,366.873657 143.703766,386.942444 138.400360,406.981506 
	C138.147522,407.936920 137.764267,408.863678 137.367584,409.771393 
	C137.256027,410.026703 136.880157,410.166504 135.965363,410.859070 
	C135.571564,408.121552 135.633240,405.635834 134.833008,403.468323 
	C130.215256,390.960693 130.648361,377.742615 128.930832,364.814484 
	C126.765007,348.511810 119.444283,335.153046 104.058350,327.456116 
	C102.482132,326.667603 100.605652,326.479309 98.404541,325.972656 
	C97.940582,325.932831 97.791153,325.764557 97.791153,325.764557 
z"/>
<path fill="#0A1510" opacity="1.000000" stroke="none" 
	d="
M573.944153,387.882690 
	C577.229370,387.399933 578.750793,388.504089 579.770081,391.413055 
	C584.700439,405.484711 589.869141,419.472931 594.971802,433.484009 
	C595.302185,434.391052 595.787781,435.241608 596.564209,436.888794 
	C599.996643,427.518433 603.179993,418.869354 606.331543,410.208740 
	C608.206726,405.055603 610.002869,399.873657 611.886414,394.723633 
	C614.482178,387.626160 614.503174,387.633850 623.127075,388.088379 
	C621.396057,393.005798 619.764587,397.776520 618.040039,402.513367 
	C613.042175,416.240662 607.918152,429.923096 603.063599,443.700623 
	C602.131104,446.347015 600.986206,447.749603 598.161316,447.210571 
	C595.255310,446.656128 591.631409,448.968140 589.911499,444.078308 
	C583.413940,425.605255 576.575867,407.251953 569.667236,388.310913 
	C571.169617,388.145294 572.360962,388.013977 573.944153,387.882690 
z"/>
<path fill="#97C5D3" opacity="1.000000" stroke="none" 
	d="
M98.018639,326.013885 
	C97.692894,327.177856 97.395332,328.316040 96.866089,329.333740 
	C95.022392,332.879059 95.607346,335.377075 99.218102,337.645660 
	C106.495377,342.217834 110.739601,349.250458 114.668854,357.898376 
	C107.012383,352.141205 100.315987,347.105957 92.786469,341.444244 
	C91.256927,346.271057 90.193634,349.526764 89.193245,352.801697 
	C85.895561,363.597229 82.439934,374.348969 79.385727,385.213318 
	C76.060730,397.040894 72.848572,408.913910 70.095490,420.884003 
	C68.087776,429.613342 67.674751,430.198090 57.867573,428.115723 
	C58.277523,424.777649 58.453457,421.329987 59.149364,417.990692 
	C65.972565,385.249725 78.342674,354.752594 96.389084,326.577362 
	C96.557205,326.314941 96.894928,326.161133 97.472305,325.860596 
	C97.791153,325.764557 97.940582,325.932831 98.018639,326.013885 
z"/>
<path fill="#98C5D4" opacity="1.000000" stroke="none" 
	d="
M89.221359,310.262543 
	C83.339134,317.416138 77.248459,324.409698 71.612068,331.752045 
	C51.193668,358.350433 38.174118,388.259491 32.136902,421.225220 
	C32.047249,421.714783 32.035820,422.218628 31.986576,422.715668 
	C31.306643,429.578735 31.306593,429.578735 23.125753,428.475830 
	C23.551725,425.161835 23.794895,421.785858 24.439058,418.488220 
	C30.845749,385.691132 44.287510,356.187317 66.487892,331.054779 
	C73.149277,323.513580 80.944427,316.973846 88.644455,310.026520 
	C89.068726,310.077698 89.221359,310.262543 89.221359,310.262543 
z"/>
<path fill="#19231F" opacity="1.000000" stroke="none" 
	d="
M423.152161,361.439941 
	C424.303986,355.639771 428.296326,359.603455 431.212219,358.077789 
	C431.212219,387.991089 431.212219,417.329224 431.212219,446.971680 
	C428.600037,446.971680 426.032227,446.971680 423.151001,446.971680 
	C423.151001,418.452667 423.151001,390.172638 423.152161,361.439941 
z"/>
<path fill="#121C17" opacity="1.000000" stroke="none" 
	d="
M696.108276,411.000061 
	C696.108276,403.181091 696.108276,395.862091 696.108276,388.238892 
	C698.925903,388.238892 701.503540,388.238892 704.330078,388.238892 
	C704.519775,390.263672 704.709534,392.289368 704.976746,395.141693 
	C712.208313,387.750000 720.185730,384.904663 730.239319,387.384552 
	C729.178955,390.033752 728.228821,392.407562 727.209778,394.953491 
	C725.658569,394.953491 724.203369,394.981537 722.749451,394.948975 
	C712.962280,394.729828 705.220520,401.338867 704.866821,411.165741 
	C704.442261,422.961945 704.766479,434.785065 704.766479,446.921021 
	C701.800842,446.921021 699.221497,446.921021 696.108276,446.921021 
	C696.108276,435.040497 696.108276,423.270264 696.108276,411.000061 
z"/>
<path fill="#0A1510" opacity="1.000000" stroke="none" 
	d="
M328.008789,420.048065 
	C328.008789,429.196808 328.008789,437.853485 328.008789,446.866058 
	C325.338257,446.866058 322.811096,446.866058 320.025269,446.866058 
	C320.025269,427.426575 320.025269,407.990295 320.025269,388.254700 
	C322.591431,388.254700 325.133942,388.254700 328.022705,388.254700 
	C328.022705,390.461578 328.022705,392.538879 328.022705,395.692688 
	C335.346832,387.819000 343.483429,384.991211 353.761658,387.346741 
	C352.638519,390.117706 351.624542,392.619324 350.658844,395.001770 
	C337.353577,394.785187 330.043915,399.519684 328.337708,409.588074 
	C327.787323,412.836029 328.094147,416.229218 328.008789,420.048065 
z"/>
<path fill="#98C5D4" opacity="1.000000" stroke="none" 
	d="
M67.221329,325.263458 
	C62.004761,331.456329 56.598392,337.500397 51.605408,343.868561 
	C32.853031,367.785736 21.309483,394.840485 17.007193,424.930603 
	C16.606293,427.734467 15.802301,429.188721 12.740228,429.059509 
	C9.191977,428.909760 9.822547,426.426575 10.034174,424.402588 
	C11.497527,410.407257 15.521169,397.076569 21.069977,384.217743 
	C30.091270,363.311676 43.073402,345.165527 59.866650,329.782745 
	C61.809280,328.003296 64.105377,326.609711 66.653236,325.057648 
	C67.068878,325.078094 67.221329,325.263458 67.221329,325.263458 
z"/>
<path fill="#98C5D4" opacity="1.000000" stroke="none" 
	d="
M66.991676,324.986206 
	C67.374146,324.698547 67.833824,324.502747 68.293495,324.306946 
	C68.099945,324.586670 67.906395,324.866394 67.467087,325.204773 
	C67.221329,325.263458 67.068878,325.078094 66.991676,324.986206 
z"/>
<path fill="#98C5D4" opacity="1.000000" stroke="none" 
	d="
M88.991531,309.986023 
	C89.365013,309.709686 89.815689,309.525024 90.266365,309.340393 
	C90.077492,309.608215 89.888618,309.876007 89.460556,310.203186 
	C89.221359,310.262543 89.068726,310.077698 88.991531,309.986023 
z"/>
</svg>